<?xml version="1.0" standalone="no"?>
<!DOCTYPE svg PUBLIC "-//W3C//DTD SVG 1.1//EN" "http://www.w3.org/Graphics/SVG/1.1/DTD/svg11.dtd" >
<svg xmlns="http://www.w3.org/2000/svg">
<metadata></metadata>
<defs>
<font id="blindfoldregular" horiz-adv-x="1036" >
<font-face units-per-em="2048" ascent="1638" descent="-410" />
<missing-glyph horiz-adv-x="1024" />
<glyph horiz-adv-x="2048" />
<glyph horiz-adv-x="2048" />
<glyph unicode="&#xd;" horiz-adv-x="1024" />
<glyph unicode=" "  horiz-adv-x="1024" />
<glyph unicode="&#x09;" horiz-adv-x="1024" />
<glyph unicode="&#xa0;" horiz-adv-x="1024" />
<glyph unicode="!" horiz-adv-x="442" d="M143 1284l111 117l31 -6l86 -6q4 -39 4 -93q0 -70 -10.5 -206t-10.5 -205v-340l-84 -113l-24 29q-20 287 -33 364zM178 135l4 86q2 41 11 78q8 12 116 59q2 0 11.5 11.5t17.5 11.5q23 0 80 -61t57 -84q0 10 -65 -170q-8 -20 -27 -21q-37 0 -117 31q-90 35 -88 59z" />
<glyph unicode="&#x22;" horiz-adv-x="759" d="M84 1393q2 10 29 96q16 55 59 65l82 5q4 0 11 -7.5t11 -7.5q37 -14 39 -16q25 -12 31 -27q33 -81 33 -153q0 -29 -65.5 -125.5t-90.5 -98.5l-73 56l45 139zM485 1423q4 4 31 97q16 57 59 65l80 4q8 0 23 -14q29 -8 41 -14q25 -12 31 -27q32 -78 32 -156q0 -29 -65.5 -125 t-89.5 -98l-74 57l43 138z" />
<glyph unicode="#" horiz-adv-x="1187" d="M63 510v16l222 90v197q0 31 -58 31h-57l-16 155q12 23 34 23l70 2l64 16l45 4v113l-31 191v67q57 23 168 68l22 -84l31 -355l184 -2l7 -6q2 10 -9 205l-24 168q25 29 57 43l121 51l8 -28q-4 -68 4 -195q8 -133 8 -195q0 -16 15 -43l221 13l18 -211h-137l-59 -21v-233 l125 12l45 12q8 -2 34.5 -70.5t26.5 -84.5v-29q-20 -6 -135 -41q-80 -25 -80 -49q4 -94 37 -279l-4 -24l-211 -74h-23l-16 103v249q0 12 -10 23h-172q-16 0 -56 -16q-6 -66 13 -224l20 -69q-4 -14 -8 -19q-6 -10 -25 -12q-43 -2 -118 -35l-80 -33q-31 0 -29 54l10 358 q-14 14 -20 14t-16.5 -3t-16.5 -3h-55l-88 -16zM547 584q96 -8 262 -37l-47 289l-215 -41v-211z" />
<glyph unicode="%" horiz-adv-x="862" d="M242 985l4 86q2 45 8 78q8 10 119 59q2 0 11 11.5t17 11.5q23 0 79.5 -62.5t56.5 -85.5q0 6 -64 -168q-8 -20 -27 -20q-37 0 -116 31q-90 35 -88 59zM276 90v23q0 45 109 290l135 308l273 639q25 -10 24 -47q0 -10 -4 -35t-4 -35q2 -37 2 -47q0 -27 -4 -41l-25 -154v-47 l-8 -37v-106l-16 -27v-16l-451 -678zM629 274l4 84q2 41 10 78q16 20 117 60q23 23 28 22q20 0 79 -62.5t59 -82.5q0 14 -66 -168q-8 -23 -26 -23q-35 0 -117 33q-90 35 -88 59z" />
<glyph unicode="'" horiz-adv-x="354" d="M84 1393q2 10 29 96q16 55 59 65l82 5q4 0 11 -7.5t11 -7.5q37 -14 39 -16q25 -12 31 -27q33 -81 33 -153q0 -29 -65.5 -125.5t-90.5 -98.5l-73 56l45 139z" />
<glyph unicode="(" horiz-adv-x="788" d="M102 328q2 100 17 233q2 10 26 150q25 133 25 178v74q0 29 37 84q115 170 289 319q76 35 98 43q41 14 84 18l14 -4v-26q-84 -84 -194 -223q-150 -188 -138 -234l-16 -604l381 -318h117l4 -22l-101 -201q-78 63 -137 99q-78 45 -188 124q-80 57 -225 195q-92 88 -93 115z " />
<glyph unicode=")" horiz-adv-x="823" d="M76 1528l8 10l45 -18q59 -12 260 -105q158 -74 203 -96q160 -84 166 -129q35 -250 37 -309l20 -435q-2 -14 -10 -36l-262 -283q-178 -193 -295 -346h-23q0 2 -2 9t-2 11l383 658l-39 243l-8 226q-70 141 -250 344q-100 115 -231 256z" />
<glyph unicode="*" horiz-adv-x="468" d="M152 690l4 86q2 41 10 78q8 12 117 59q2 0 11 11.5t17 11.5q23 0 80.5 -61t57.5 -84q0 4 -66 -170q-8 -20 -27 -21q-37 0 -116 31q-90 35 -88 59z" />
<glyph unicode="+" horiz-adv-x="1024" d="M96 741v23q6 4 37 14l359 35q-4 33 -25 160l-23 147v25q111 55 164 55h17l12 -37l27 -327l370 20v-172l-342 -33l25 -389h-174l-35 367q-45 2 -131 -11.5t-125 -13.5l-98 -20q-8 8 -33 75.5t-25 81.5z" />
<glyph unicode="," horiz-adv-x="374" d="M59 -2q6 10 31 96q16 57 57 66l82 4q8 0 23 -14q16 -6 40.5 -16.5t31.5 -24.5q32 -78 32 -156q0 -31 -64.5 -124t-92.5 -99l-72 57l43 137z" />
<glyph unicode="-" d="M170 426v25q6 4 37 12l883 84q16 -6 16 -23q8 -141 4 -155q-86 -6 -252 -25q-129 -14 -160 -14l-186 -17l-285 -43q-8 8 -32.5 76t-24.5 80z" />
<glyph unicode="." horiz-adv-x="493" d="M219 113l4 86q2 41 10 77q8 12 117 60q2 0 11.5 11t17.5 11q23 0 80 -61t57 -84q0 4 -65 -170q-8 -20 -27 -20q-37 0 -117 30q-90 35 -88 60z" />
<glyph unicode="/" horiz-adv-x="784" d="M246 2v25q0 49 110 299q39 82 133 299l271 637q25 -8 24 -45q0 -10 -4 -35t-4 -37q2 -39 2 -45q0 -27 -4 -41l-22 -154v-49l-9 -35v-106l-16 -29v-16l-453 -676z" />
<glyph unicode="0" horiz-adv-x="1040" d="M285 1083q-2 53 53 123l111 142q27 33 59 63q66 20 197 64l69 4q33 2 123 -88.5t99.5 -126t11.5 -205.5l4 -357l16 -284q-6 -41 -102 -156q-2 -2 -39 -59q-18 -29 -43 -27l-68 -8h-74l-165 -25q-18 12 -95 119q-47 66 -82 98q-14 10 -34.5 25.5t-24.5 32.5q-2 18 4 37 l-8 65q0 18 -6 291zM541 375q0 -25 49 -64q39 -31 57 -37l127 60v942q0 51 -2 59q-8 33 -47 33h-63q-16 0 -68.5 -64.5t-52.5 -82.5v-846z" />
<glyph unicode="1" horiz-adv-x="774" d="M205 72q0 12 145 69q59 23 70 52l-4 432q-6 31 -10 106l-17 385q-10 4 -33 12l-94 5q-8 14 -16 36l389 136h16l17 -84l8 -222q0 -8 -6 -122q2 -6 2 -21q-4 -29 -10 -145q-2 6 -3 -478q2 -16 9 -47q53 -20 161 -63v-23q-49 -6 -116 -24l-78 -4l-133 -23q-82 2 -248 12 l-47 5q-2 2 -2 6z" />
<glyph unicode="2" horiz-adv-x="841" d="M80 973q37 106 184 293q-2 6 -2 22q8 14 94 44t111 30q29 0 151 -43l123 -43q25 -27 56 -105l49 -122q18 -42 55 -136q-2 -12 -2 -20q0 -6 2 -8q-41 -111 -74 -226q-225 -90 -227 -90q-129 -55 -217 -112v-60q0 -12 12 -28q61 -16 125 -35h31l45 -17l94 17q43 8 62 63 q27 80 43 103q2 0 8 -4t10 -4l45 -109q-29 -41 -64.5 -151.5t-66.5 -155.5q-70 -2 -145 -19l-275 189q-27 -20 -47 -72l-33 -82l-86 92q23 86 58 185l63 182q16 0 92 61l164 95q86 49 94 88l33 159q-68 162 -162 248q-10 -6 -30 -14q-63 -10 -80 -17q-43 -12 -70 -36 q-47 -43 -82 -174l23 12l112 -55v-29l-16 -80v-43q0 -41 -109 -41l-100 -20q-16 23 -37 129z" />
<glyph unicode="3" horiz-adv-x="806" d="M29 350q0 10 24 84q27 82 31 101q6 6 39 16l139 4q37 2 43 -82l6 -74q4 -39 -31.5 -64.5t-70.5 -47.5q25 -57 78 -82q6 -2 96 -25l88 -12l115 108q-4 27 -16.5 90.5t-12.5 92.5v168l-78 110q-37 -6 -108 -26q-72 -29 -62 -29q-23 0 -57.5 16.5t-34.5 34.5q0 29 26.5 59.5 t55.5 43.5l70 -13l98 21q90 18 90 45q0 63 -20 205q0 27 -13 73q-8 14 -69 66q-14 14 -29 14q-51 0 -141 -73q63 -31 63 -52v-127q-16 -16 -91 -60t-91 -44q-27 0 -70 104q-37 90 -37 109q0 29 82 102q4 4 90 78q27 29 86 76l99 24l67 -12q8 0 29 -4q66 -51 190 -96 q66 -23 54 -51l59 -285q-27 -41 -147 -170q57 -33 141 -98q12 -14 20 -95l29 -270q6 -35 -115 -133q-51 -39 -155 -121l-187 21l-174 34q-18 0 -49 21q-150 215 -149 225z" />
<glyph unicode="4" horiz-adv-x="821" d="M72 559v68q12 27 92 155l186 305q98 162 221 320q18 25 70 37l23 -17l51 -774l96 17q39 6 57 -86l-20 -13q-168 -6 -176 -57l12 -100q6 -55 69.5 -67.5t114.5 -22.5q7 -4 13 -37q-317 -25 -631 -29l-8 14q8 0 8 4t-4 9l225 106v125q0 8 -12 21l-133 -5zM254 717l113 -23 l135 -16l-13 180l-32 238q-59 -96 -115 -191q-63 -106 -88 -188z" />
<glyph unicode="5" horiz-adv-x="899" d="M84 354l47 148q0 66 84 65l109 11l16 -52l22 -133l-102 -82q12 -16 68.5 -68.5t64.5 -52.5q33 0 113 33q68 27 84 39v41l65 326l-82 190q-49 14 -167 0q-18 -2 -50 -39q-23 -33 -45 -63h-20l-70 49l33 195l47 188l23 127l20 96q158 -18 188 -18h99l43 -13q43 -12 65 -8 l125 -30q23 -6 29 -3q4 -51 -4 -100q-74 -6 -197 -31q-143 -29 -193 -36t-67 -64q-4 -14 -24 -92l45 -8l194 -11l127 -98q74 -57 76 -86q18 -100 47 -301q2 -14 -41 -67q-41 -59 -125 -177l-20 -28q-4 -6 -146.5 -65.5t-154.5 -59.5q-23 0 -97 47q-90 57 -163 141 q-59 68 -66 90z" />
<glyph unicode="6" horiz-adv-x="788" d="M76 770l4 145v52q45 53 125 168q121 215 196 254l41 -7l103 -18q27 -4 133 -37q16 -4 33 -43q12 -51 28 -102q2 -10 27 -59.5t25 -53.5q0 -2 -5 -14q-2 -8 0 -13l-176 -96l-159 174q18 47 98 125q-6 8 -31.5 18.5t-36.5 10.5q-25 0 -74 -46t-51 -71l-16 -274q31 12 92 35 q70 -6 168 -56q47 -23 160 -84q14 -25 50 -137.5t36 -132.5q0 -12 -31 -74q-49 -100 -76 -160q-20 -47 -53 -118q-2 -6 -119.5 -50.5t-138.5 -44.5q-29 0 -141 64q-27 16 -131 76q-18 18 -33 110q-29 178 -37 310zM332 332q-6 -18 49 -56q82 -55 88 -61q53 43 123 117 l-2 186l-17 150q-4 43 -18 82q-68 43 -106 38q-92 -49 -105 -81z" />
<glyph unicode="7" horiz-adv-x="727" d="M59 1020l31 268q6 51 49 49l17 4q10 0 19 -33.5t30 -33.5h497l76 -68l-127 -225q-121 -215 -121 -279q0 31 15 -258l12 -247q-31 -33 -37 -35q23 0 -23 14t-55.5 15.5t-64.5 3.5q-29 4 -60 18q-39 53 -77 106q-53 78 -54 109q0 33 72 176q57 113 88 162q123 190 254 379 l-373 18q-23 2 -24 2q-18 -6 -25 -47l-16 -123h-94z" />
<glyph unicode="8" horiz-adv-x="915" d="M111 453q0 25 127 198q-2 4 -66 58q-45 39 -45 77l12 60v31l31 161q4 25 20 72l265 137l262 -16l82 -41l71 -301l-59 -166q154 -293 154 -344q0 -4 -20.5 -47t-22.5 -56q-6 -27 -20.5 -87t-49.5 -87q-53 -41 -145 -82l-156 -69q-119 25 -254 84q-117 51 -139 110l-35 197 zM291 498l14 -250q-4 -27 111 -86q84 -53 98 -53q27 0 213 108q8 4 8 21v22l8 131q-53 90 -356 172zM311 905q0 -31 11 -49q111 -35 333 -108l84 133l-4 28q-12 86 -61 197q-6 14 -76 35q-61 18 -88 18h-45l-154 -127v-127z" />
<glyph unicode="9" horiz-adv-x="952" d="M186 797l39 364q4 16 13 41q33 31 88 109q10 23 47 57.5t55 32.5l180 29h58l43 22q53 -45 143 -119q16 -6 39 -28q14 -29 27 -101l14 -90l-4 -684q10 -29 -174 -219q-27 -39 -37 -51q-29 -33 -51 -33l-82 -2l-144 18q-57 8 -166 54q-6 2 -26 39q-39 70 -47 118l116 142 l72 -13h41q8 -16 21 -16v-137l-72 -39q14 -45 65 -45h111q8 0 31 12l26 14q94 152 95 183l-15 159q-4 4 -18 4l-111 -20q-4 0 -11 -2t-9 -2l-115 -27h-35zM424 811q-8 -12 16 -41q47 -55 60 -74l22 4q41 6 84 13l74 12v512q0 72 -27 86q-12 -2 -30 23h-25l-92 -21l-21 -80z " />
<glyph unicode=":" horiz-adv-x="544" d="M233 866l5 86q2 41 10 78q8 12 117 60q2 0 11 11t17 11q23 0 80 -61t57 -84q0 4 -65 -170q-8 -20 -27 -21q-37 0 -116 31q-90 35 -89 59zM242 369l4 86q2 43 8 75q8 12 119 62q2 0 11 11t17 11q23 0 79.5 -62t56.5 -85q0 6 -64 -168q-8 -20 -27 -20q-37 0 -116 30 q-90 35 -88 60z" />
<glyph unicode=";" horiz-adv-x="542" d="M233 451q8 25 31 98q16 55 58 65l81 4q6 0 23 -16q39 -12 41 -14q23 -10 29 -27q34 -87 34 -155q0 -29 -65.5 -122.5t-91.5 -101.5l-72 58l43 139zM233 866l5 86q2 41 10 78q8 12 117 60q2 0 11 11t17 11q23 0 80 -61t57 -84q0 4 -65 -170q-8 -20 -27 -21q-37 0 -116 31 q-90 35 -89 59z" />
<glyph unicode="=" horiz-adv-x="954" d="M84 485v25q6 4 37 12l880 84q18 -6 19 -22q6 -136 2 -156q-86 -6 -250 -25q-131 -14 -162 -14l-184 -16l-287 -43q-8 12 -31.5 77.5t-23.5 77.5zM170 741q0 31 317 45q352 16 385 29l17 -137q-111 -8 -309 -25l-80 -20l-154 -2q-43 -8 -129 -17l-27 -12l-12 12v113 q0 4 -4 6t-4 8z" />
<glyph unicode="?" horiz-adv-x="737" d="M135 1100q113 260 227 262l119 2q45 -8 117 -59q25 -16 84 -78q68 -70 61 -78l9 -264q-33 -47 -168 -154q-104 -82 -117 -151l-21 -121q2 -6 3 -13q0 -16 -35 -30q-49 -20 -64 -31l-26 12v228l202 293v53l-20 131q0 43 -12 53q-74 68 -113 68q-20 0 -61 -31t-44 -49 q8 -2 41 16l91 -76l-37 -135q-6 -51 -97 -61l-59 -13q-49 33 -76 199zM225 231q-4 33 140 129h18l123 -92v-114l-8 -29l-179 -55z" />
<glyph unicode="@" horiz-adv-x="962" d="M12 846q0 209 101 383q117 203 313 203q201 0 315 -162q102 -143 103 -352q0 -209 -96 -386q-115 -211 -310 -210q-201 0 -319 167q-107 148 -107 357zM70 877q0 -182 86 -330q102 -176 272 -176t272 176q86 147 86 330q0 182 -86 329q-102 176 -272 176t-272 -176 q-86 -147 -86 -329zM162 635v76l6 20v49q0 55 131 133q66 39 109 39q2 0 3 -2t5 -2q6 0 37.5 10.5t33.5 12.5v104q0 37 -26 49q-35 12 -68 25l-49 -37l43 -74q0 -12 -4 -18q-78 -104 -117 -105q-31 0 -61 23q-10 31 -39 70q6 0 12 4l-6 22q0 49 76 107.5t127 62.5l45 4l59 9 l19 -5h6q2 2 6 2q12 0 66.5 -56t54.5 -68v-140l-6 -18v-234l10 -10l39 92l10 -4l39 -37q-4 -10 -26.5 -71.5t-43.5 -61.5l-131 2q-25 4 -24 25v53q-18 -2 -92 -57l-74 -58q-39 0 -170 64zM334 735l28 -8l41 6q101 50 101 64l-12 88l-84 -17q-35 -2 -54 -51z" />
<glyph unicode="A" horiz-adv-x="1329" d="M68 57q16 37 112 68q109 35 133 61q39 88 113 275l127 321q29 72 106 260q61 152 80 152q16 0 66 -104q43 -92 53 -132q41 -156 219 -575q18 -45 64 -150q53 -115 92 -118l137 -15q15 -1 35 -30q0 -14 -14 -15l-80 2l-43 -10l-420 -24l-66 2q-47 6 -45 30l236 82v15 q0 14 -52.5 114.5t-68.5 120.5l-338 -10q-35 -6 -35 -43l-30 -168q2 -2 102 -35q57 -18 82 -41v-18l-133 -15h-432zM551 508l229 14q-14 55 -100 324q-98 -233 -129 -338z" />
<glyph unicode="B" horiz-adv-x="1327" d="M68 1227l8 22l246 45h63l68 11h475l176 -74q7 1 14 1q56 0 107 -71q37 -70 75 -137l-28 -152q-12 -63 -62 -100l-100 -76q68 -25 76 -28q43 -20 65 -47q80 -99 80 -138q0 -31 -38 -150.5t-54 -135.5l-117 -86q-51 -37 -110 -74q-18 -12 -33 -21l-907 15q16 31 121 69 q70 27 143 52l-12 550l-15 203l6 260q-8 37 -41 37zM602 1151q4 -31 14 -195l9 -139l16 -76h123l135 15q27 2 61.5 42t34.5 66l13 80v84l-76 92h-60l-63 19zM633 176h53q41 0 113 10q84 10 113.5 12.5t74.5 57.5t49 88q7 63 7 102q0 45 -9 60l-73 74h-125l-203 -37v-367z " />
<glyph unicode="C" horiz-adv-x="1179" d="M166 549q2 121 24 319q6 57 93 203q6 10 36 80q27 57 60 86q25 20 95.5 52t103.5 36l139 51q166 -41 196 -55q86 -37 156 -133l43 98l14 4q33 -8 39 -108l13 -203q-8 -78 -9 -234q0 -29 -16 -28q-18 0 -113 174q-39 92 -110 244q-20 43 -78 49l-154 14q-18 0 -87.5 -34 t-76 -46t-69.5 -221q-66 -219 -66 -248q0 -6 45 -157q49 -166 78 -242q12 -23 88 -57q59 -27 101 -37q19 -4 51 -4q53 0 141 12q31 4 51 39q49 102 146 305q8 -4 30 -19l-6 -194q-2 -35 -6 -67.5t-61 -86.5q-49 -49 -86 -67q-23 -12 -269 -62l-65 -6q-10 0 -117 41 q-121 47 -160 74q-12 27 -57 115q-6 10 -129 233q-8 25 -8 80z" />
<glyph unicode="D" horiz-adv-x="1376" d="M8 1231v22l53 17l95 14h157q20 -2 39 0h692h1q26 0 137 -133q31 -39 114 -135l7 -8q40 -47 69 -90l-12 -445l-12 -82q0 -37 -41 -82q-23 -23 -68 -69q-113 -129 -135 -131q-277 -23 -339 -23h-9q-12 0 -38 3t-40 3l-139 -16h-74l-12 -6l-349 -25l-75 8q2 8 4 21 q82 27 260 82l12 37l39 725l-8 264q-2 35 -41 37q-17 0 -73 11q-47 9 -65 9h-5l-111 -8q-27 4 -33 0zM535 190h124l125 9h25l43 12h61q35 0 95.5 88t62.5 127l2 55l-18 328l-17 160q-12 39 -145 200q-12 14 -37 15l-151 -25l-115 -33l-17 -151l-12 -342q-20 -90 -26 -443z " />
<glyph unicode="E" horiz-adv-x="1282" d="M31 1239q23 31 63 31h35l154 8q8 0 170 20l112 15q53 0 178 -10q105 -9 167 -9h12q132 4 176 4h20l111 -12q25 -33 24 -74v-366l-16 -53h-23q-23 47 -104 217q-68 141 -125 182l-338 -8l-59 -13v-311l12 -112l141 12q39 4 56 53q10 47 20 92l33 133l12 27q33 -16 27 -16 l16 -168q15 -152 15 -247q0 -33 -2 -59v-11q0 -22 6 -54q8 -40 8 -55v-113l-23 -4l-159 311h-107q-51 0 -70 -22l17 -334l10 -88q6 -45 25 -45l270 8l127 27h39h-2q0 2 76 16q20 41 63 164q41 115 76 172q2 0 10 -6t16 -6l17 -195l-8 -207q-6 -33 -31 -33h-367l-528 -43 l-295 2l-29 11v18q129 53 183 59l55 23l-25 332q8 291 15 438q4 72 14 186l-25 80l-204 17z" />
<glyph unicode="F" horiz-adv-x="1247" d="M90 1180q20 39 113 51l186 4h653q4 -4 11 -6q47 0 63 2q57 7 98 7q17 0 31 -1l23 -98l-11 -432q-4 -4 -14 -25l-26 8v64q0 23 -150 366h-326l-45 -12h-80l-41 -223v-205h209q29 0 76 115q10 23 53 139q25 -12 31 -33l-16 -104l-2 -465q0 -35 -23 -35q-12 0 -45 113 q-23 82 -47 161h-207q-29 0 -29 -30v-197l17 -229l14 -11h271l4 -24q0 -10 -13 -23l-20 9l-170 -37l-135 -15l-426 -20q-18 0 -19 16l6 23q4 -8 15 -6q20 2 24 2l166 43v1040l-73 27l-58 14l-39 8z" />
<glyph unicode="G" horiz-adv-x="1206" d="M68 897q18 37 116 160l181 227q23 4 55 10q87 6 208.5 6t278.5 -6q18 0 66 -65q2 -4 61 -74l70 123l18 -57l13 -230q1 -24 1 -52q0 -62 -6 -144q-4 -59 -22 -70q-20 4 -49 78q-41 109 -60 143l-114 199q-12 20 -82 43l-70 8h-188q-47 -53 -105 -126q-53 -68 -53 -116v-6 l-16 -514q16 -49 75 -170q68 -137 89 -139l100 -8l133 14q31 4 76 68q96 137 92 159l12 230l-45 18h-266q-8 8 -8 15l20 63q190 8 371 23q131 10 176 10h64q6 -6 19 -38t13 -42q0 -4 -4 -13.5t-4 -13.5l-96 -12q-35 -4 -35 -57v-6l16 -441l-12 -37q-8 0 -12 -4l-139 99 l-119 -117l-15 -6l-276 -17l-156 -18q-8 4 -207 164q-49 39 -102 86q-2 14 -8 43l-12 135l-31 233z" />
<glyph unicode="H" horiz-adv-x="1603" d="M135 1196q8 16 60 27q12 2 24 0q6 -2 21 -4q10 0 40.5 10t45.5 10q307 23 362 23q57 0 141 -39v-27l-182 -43q0 8 17 -115l16 -123v-184l432 29q-2 24 -2 48t2 46q8 102 31 274l-180 27l-50 21q8 23 25 22l74 10l215 23h178l29 -12h65q25 0 59.5 -24t40.5 -46l-180 -41 q-2 -25 -8 -150v-13q0 -36 8 -111l29 -265v-446q18 -16 63 -39q31 -6 64 -10q47 -10 49 -27v-18l-111 -17l-426 31q-6 0 -184 -20q-6 8 -12 22q14 23 98 47q106 31 137 47l-8 35v70l-22 356q-2 18 -15 31l-28 -8l-35 -5h-37l-184 -12h-133v-180l12 -315q0 -12 14 -23h60 l84 -20l4 -23q-6 -6 -23 -6q-10 0 -43 4h-115l-358 -41l-154 4l7 31q61 12 213 65v158l6 37v43l8 106v11q0 81 -19 680q-2 43 -43 43h-137z" />
<glyph unicode="I" horiz-adv-x="1003" d="M305 1280l8 20q8 0 24.5 4.5t20.5 4.5l177 -11h288l183 -4q12 -8 22 -34l-104 -33h-25q-6 0 -38 -11.5t-36 -15.5v-102l9 -43l12 -119q-6 -14 -2 -41q6 -20 10 -41q4 -61 4 -88q-4 -201 -4 -600l180 -27q27 4 41 -35l-18 -6l-733 -41v27l241 90v983q0 10 -4 35 q-47 16 -145 39q-47 6 -111 49z" />
<glyph unicode="J" horiz-adv-x="1017" d="M205 47q-2 14 59.5 78.5t73.5 64.5l68 -4q27 -6 69 -32q57 -35 57 -60v-24l-30 -90q0 -6 6 -15h14l66 66q33 33 33 51l30 772q8 222 8 408v73q-8 10 -32 11l-123 -13l-15 21l7 18l131 12l125 29l114 4l56 10h41l114 21l15 -27q0 -23 -23 -63h-78l-67 -29l-11 -385 l-24 -256v-567l-354 -277l-76 15q-150 29 -217 61q-14 6 -23 53z" />
<glyph unicode="K" horiz-adv-x="1386" d="M51 41v27l191 90l26 659l4 316q0 27 -49 45q-33 12 -51 12h-41l-59 16q-12 29 32 33q104 8 209 23l17 -2l43 22l141 -22l154 -15l8 -28q-8 -6 -98 -46q-57 -25 -56 -49l23 -370l442 405q-59 12 -170 55q0 8 -4 13q18 18 107 22q39 0 112 2l213 6l66 -2q16 0 22 -10 l10 -22q-84 -29 -186 -64l-92 -92q-109 -109 -291 -307q205 -248 498 -635q4 -6 90 -21q10 -2 76 -34v-27l-185 -43q-61 -4 -137 -4q-139 0 -334 12q12 27 146 113l-393 448q-6 -6 -7 -14q0 -170 -10 -399q94 -49 113 -50h39l12 -34l-203 -17l-90 -20h-309q-2 0 -12.5 4 t-16.5 4z" />
<glyph unicode="L" horiz-adv-x="1126" d="M8 1198q10 29 41 31l55 22h244l92 -12h238q2 -35 0 -39l-119 -45q-45 -23 -43 -47l-10 -918q2 -20 18 -65q27 2 109 12q70 8 110 8q29 0 52 -4l84 13l34 8q16 2 48 12q96 225 161 430q10 -2 19 4l20 -18v-502q-2 -8 -2 -16q0 -6 2 -13l-207 -16l-909 -18q14 39 78 65 q31 12 102 39q12 153 12 347q0 42 -1 85l-7 449l11 137l-41 18l-158 19z" />
<glyph unicode="M" horiz-adv-x="1486" d="M8 1221q-1 2 -1 4q0 6 7 18q70 25 88 25l174 8h13q39 0 105 -10q77 -12 112 -11q10 0 22 -14q10 2 25 10q72 -98 133 -325q68 -246 123 -359l244 656l34 12l269 10l200 -10l19 -25l-172 -59v-123l8 -55v-864h59l123 -27v-19l-139 -30h-266l-21 12l-82 10h-176l195 101 v561l18 327l-73 -233q-197 -623 -293 -784q-43 18 -156 295q-96 236 -125 340q-76 270 -90 309q-4 -8 -2 -53v1l-6 -202q1 -2 1 -30.5t-1 -84.5q-8 -12 -8 -27q0 -14 15 -50t15 -54v-313q0 -18 39 -29q133 -35 176 -59q-16 -18 -22 -19q-29 -2 -119 -10l-100 -8l-258 -8 l-45 10q-20 -2 -21 10q0 12 106.5 61.5t112.5 61.5q0 14 3 44t3 42l9 319l-9 222l-16 127v21q0 88 -14 255l-183 6z" />
<glyph unicode="N" horiz-adv-x="1333" d="M70 1153v18q74 33 112 37l127 15q6 0 15 -6l41 8h116q33 0 142 -25q119 -27 118 -41q0 -20 -82 -45l-94 -29q39 -61 226 -206q45 -43 163 -185q139 -166 181 -207q0 98 2 175v19q0 118 -21 419q-2 39 -137 49l-72 25q0 6 6 16l84 35h138l213 6q70 -8 82 -25v-18 q-66 -27 -199 -90q16 -338 37 -920l-17 -233l-4 -4q-2 -2 -12 -2q-16 0 -156 135q-125 123 -158.5 169t-84.5 107q-147 176 -220 291q-49 78 -170 274l7 -325q20 -137 20 -438q0 -25 25 -31q143 -35 151 -90l-139 -8l-55 -13h-43q-20 0 -72 -10q-94 -4 -231 -4q2 23 86 63 q59 29 108 52q23 10 27 16q14 10 16 25l8 110q-6 309 -32 813q-2 37 -58 41l-67 4q-35 2 -127 33z" />
<glyph unicode="O" horiz-adv-x="1183" d="M53 803q0 10 76 164q80 162 141 250q31 12 97 32q29 8 129 49q6 0 12 -4l125 35l143 12h4q40 0 109 -67q2 -2 100 -105q70 -51 154 -131q33 -30 33 -53q2 -136 2 -239q0 -223 -9 -291q-2 2 -2 -6v-31l-350 -422l-117 -12h-247l-383 372q6 35 6 93.5t-6 140.5zM307 758 l35 -377q-2 -43 76 -137t119 -94l114 -3l92 7q47 70 146 184q29 33 37 82l28 504q1 1 1 4q0 24 -115 149q-31 43 -84 121q-4 4 -37 15.5t-39 11.5h-51q-4 0 -6 3t-7 3q-27 0 -113.5 -34t-92.5 -50q-8 -23 -23 -103q-80 -240 -80 -286z" />
<glyph unicode="P" horiz-adv-x="1161" d="M35 1227q12 31 28 26l281 27l59 29h107l41 -9l358 -4q53 -18 138 -73q106 -72 135 -86q12 -16 20 -62q0 -6 15 -69l26 -117q-47 -94 -127 -232q-12 -20 -80.5 -64t-91.5 -44h-377v-117l21 -276q2 -39 41 -37l176 8q0 -12 16 -21q0 -10 -10 -18l-68 -12q-45 -2 -282 -21 q-123 -9 -202 -9q-26 0 -48 1l-107 6l-2 21q29 20 144 45h20q39 12 41 37q16 233 16 418q0 89 -4 167l-16 404q2 12 -12.5 26.5t-28.5 14.5h-41l-24 6l-29 4l-57 10q-27 2 -76 21zM567 1028q0 -121 4 -348l299 -12l129 172l-41 178l-10 104q-43 39 -129 52q-39 5 -84 5 q-74 0 -162 -14q0 -12 -4 -16q-2 -31 -2 -121z" />
<glyph unicode="Q" horiz-adv-x="1134" d="M49 688q0 41 115 264q106 207 125 228q74 82 196 125l224 8q70 -37 254 -133q164 -68 161 -123l27 -176l55 -222l8 -81q0 -6 -36 -121q-47 -147 -58 -187q-2 -25 -22 -71q-23 -27 -119 -97l-160 -116l94 -80q127 135 148 135q12 0 27.5 -24.5t15.5 -39.5q0 -27 -82 -194 q-86 -178 -117 -178q-16 0 -168 78q-33 16 -84 38q-59 33 -59 56l-27 135l-4 63q-2 29 -47 41q-23 6 -70 17q-139 49 -202 96q-20 16 -49 125q-12 43 -45 166q-16 63 -60 164q-35 82 -41 104zM346 672q16 -121 100 -385q12 -39 27 -72q14 -20 86 -64.5t94 -44.5q45 0 142 44 q33 10 59 26q53 93 127 359l-39 253l-43 211q-8 41 -22 80q-39 49 -138 97q-53 26 -86 26h-2h-90l-24 8q-53 -16 -84 -84q-20 -45 -38 -140t-34 -138z" />
<glyph unicode="R" horiz-adv-x="1269" d="M2 1184q-2 33 53 35q54 3 94.5 3t65.5 -3l78 -9h278l27 9q17 -4 50 -4q62 0 181 14q10 1 19.5 1t19.5 -1l17 -2q33 -8 84 -53q45 -37 137 -111q27 -20 29 -47l-11 -76l4 -131q-25 -33 -88 -80t-86 -74q0 -6 11 -6l24 -8q39 -6 109 -45q6 -23 18 -82l35 -297l4 -82 q4 -2 14.5 2t14.5 4q18 72 61 221l64 -32q-12 -80 -23 -172q-6 -51 -49 -160q-33 -10 -123 -29l-92 -6h-2q-27 1 -81 55q-56 56 -60 84l-56 412q-8 68 -69 70l-228 4q-2 -4 -12 -205l12 -252q14 -6 103 -33q70 -20 88 -43q0 -8 -17 -18l-16 4l-201 -2l-243 -29h-170l-4 19 q8 20 90 51q94 35 110 51q-1 36 -1 79.5t1 94.5l4 184v25q0 78 -10 188q-2 23 -2 404q0 33 -14 39l-209 26zM512 721l80 -12l160 -4q37 0 55 16q37 37 67 51l33 33q-2 78 -2 133t2 90l-141 64l-166 -23q-39 -6 -43 -8q-25 -6 -27 -29q-4 -45 -18 -311z" />
<glyph unicode="S" horiz-adv-x="993" d="M45 541l12 20h19l12 -20q68 -113 109 -172q82 -119 127 -142q115 -55 202 -82l11 -6q76 29 149 60q86 49 86 128v7l-4 102q-10 43 -80 62q-109 29 -117 32q-25 0 -75 7.5t-74 7.5l-205 53q-10 4 -29 12q-29 66 -77 197q-61 164 -62 180q0 33 101.5 180.5t121.5 151.5 q41 16 117 37q57 8 223 24q43 0 131 -82q27 -27 105 -100q14 8 86 170q16 0 27 -22l-15 -201l4 -37l-10 -12q-10 -12 -10 -31v-61q0 -94 -4 -201q-18 0 -41 -17h-23q-18 76 -139 306q-10 20 -112.5 71t-129.5 51q-41 0 -116 -32q-82 -37 -86 -70l-17 -119q0 -4 2 -13t2 -13 q147 -106 449 -207q70 -23 209 -78q12 -25 52 -151t40 -142l-4 -35q-4 -37 -74 -194q-12 -27 -37 -80q-6 -6 -135 -53t-143 -47q-68 0 -191 57l-168 78q-39 -39 -143 -142q-29 29 -29 105v22z" />
<glyph unicode="T" horiz-adv-x="1140" d="M20 1235l7 61q6 -2 26 -8l701 12l24 15l338 10q31 0 31 -41v-258l12 -74v-45l8 -84q0 -43 -18 -43l-16 -4q-18 53 -58 150q-70 125 -143 262q-6 12 -29 10l-151 -18v-260l12 -426l-8 -306q-2 -41 45 -49l164 -30q12 0 36 -31q0 -14 -16 -15l-29 9h-47l-88 -13 q-80 -10 -149 -26q-16 10 -56 8l-174 -12l-153 -25l-68 2l-2 23q18 16 199 94l61 27l-18 940l-12 81h-109l-98 -12l-158 -399q-31 8 -31 28q-14 94 -33 447z" />
<glyph unicode="U" horiz-adv-x="1169" d="M12 1237q12 16 19 39q2 8 20 8l277 10l204 -4q4 12 21 17l16 -9v-22q-51 -29 -145 -102l33 -461q14 -201 14 -396q0 -57 127 -124l39 10l168 41l145 190q-10 184 -12 383q-2 131 -8 391q-8 8 -82 25l-86 20l-2 19q49 27 108 31q193 10 234 10q6 0 65 -2h27l59 -13v-22 q-55 -29 -133 -72q2 -6 4 -20v-899l-250 -254l-354 26q-72 6 -96 27q-205 184 -205 229q0 20 -14 445l-15 424q0 14 -10 30q-78 0 -168 25z" />
<glyph unicode="V" horiz-adv-x="1218" d="M27 1206l28 13h21l90 20l215 -6q106 -3 191.5 -3t152.5 3q4 -2 12 -29l-180 -63l-14 -8l260 -662l231 690l-20 8l-201 27v16q10 10 37 21l55 2l86 14l207 13h7q22 0 55 -9q47 -12 47 -28q0 -27 -58 -37q-74 -14 -100 -68q-6 -35 -23 -78q-49 -123 -163 -442 q-72 -217 -211 -618h-17q-12 6 -33 24q-78 139 -153 340q-6 16 -129 361q-35 94 -170 430q-6 16 -25 18q-68 8 -194 33z" />
<glyph unicode="W" horiz-adv-x="1734" d="M-14 1104q2 35 204 49q119 4 240 10l21 11q6 -6 24 -11l39 -2q20 -6 61 -20v-31l-104 -47q66 -113 201 -471q94 281 172 473q0 6 -10 6l-166 55q-2 18 77 39l41 4q0 -4 23 -4l25 9l378 2q8 0 29 -19.5t25 -30.5q-47 -23 -121 -79l182 -592l252 632l-39 15h-18l-179 14 q0 20 23 33l84 16q8 0 25 -4l73 15l187 2q12 0 35.5 6t35.5 6h27q27 0 27 -27q0 -31 -76 -59q-82 -29 -90 -55q-96 -285 -275 -850q-12 -18 -33 -56q-18 -49 -118 -245q-4 0 -25 -4q-86 141 -119 237q-23 70 -75 260q-43 158 -43 164v23l-66 223l-240 -881q-27 12 -75 113 q-33 68 -123 256l-135 297q-39 86 -123 301l-21 86q-16 68 -133 100q-98 29 -104 31z" />
<glyph unicode="X" horiz-adv-x="1298" d="M31 -29q-2 25 114 86q96 10 215 172q217 297 218 310q-39 66 -121 213q-33 72 -125 276q-35 78 -64 92q-51 14 -104 29l-109 33q2 8 23.5 23.5t30.5 15.5h59l55 12l51 8l45 -8l416 4q12 0 23 -35q-41 -14 -158 -76l154 -331l202 333q-16 20 -96 37q-33 6 -37 0v23 q18 10 99.5 41t95.5 31h86l41 8l31 2l26 -4l103 -39l4 -29q-10 0 -111 -55q-33 -12 -88 -45q-51 -51 -135 -244l-57 -90q-55 -86 -56 -100q0 -2 58 -82q76 -106 145 -226q45 -78 121 -206q8 -14 60 -29t63 -23l16 4q31 -10 43 -41v-18h-96l-203 -45l-154 12h-198l-6 10 q2 4 26 31h78l78 35q-84 150 -107 188q-72 119 -129 168l-233 -350l145 -88l-28 6l-41 -14l-70 -12q-16 1 -45 1t-70 -1q-33 -4 -284 -13z" />
<glyph unicode="Y" horiz-adv-x="1169" d="M-102 1219q12 25 73 36l111 21h94l43 16h29q39 0 137 -12q66 -9 110 -9q15 0 27 1l56 4q8 0 37.5 -11.5t33.5 -17.5v-18l-178 -90q76 -135 274 -424q76 147 115 229q72 150 96 234q-74 16 -172 55q0 6 4.5 15t4.5 12h47l45 8h174l55 -13q59 -14 76 -18q51 -16 63 -39 l-108 -37q-43 0 -53 -16q-31 -47 -64 -133q-43 -115 -53 -138q-6 -12 -107 -198q-88 -164 -88 -176l15 -191q8 -41 32 -145q45 -14 138 -43q61 -10 69 -12q43 -12 49 -41l-487 -50l-367 2l-2 23q41 16 164 57q82 27 135 60l-8 387q0 35 -92 188q-63 104 -227 377 q-25 41 -58 45l-73 10l-29 7q-66 14 -74 16q-43 12 -67 29z" />
<glyph unicode="Z" horiz-adv-x="1202" d="M51 59q0 39 64 148q20 33 69 119q127 242 262 434l285 409l-39 11l-119 -17h-137q-57 0 -74 -22q-14 -53 -79 -262q-20 -66 -50 -111q-4 4 -16 4q-20 113 -20 465q0 10 180 70l162 12q12 8 82 8q43 0 129 -4l86 -4h200l113 -12l12 -37q-20 -55 -49 -90q-55 -68 -74 -95 q-41 -80 -92 -149q-459 -633 -497 -809q20 -1 40 -1q39 0 74 3q158 12 205 14l98 21h52l188 514q23 -12 27 -12l53 -131v-482l-185 -12l-63 -12q-43 0 -130 -5.5t-130 -5.5h-254l-277 9l-92 18q-4 6 -4 14z" />
<glyph unicode="[" horiz-adv-x="618" d="M145 -23q0 -23 5 25q2 37 4 76q14 279 32 446q2 14 11 62q8 41 8 61v47q0 39 8 116t8 116v223l-8 53q0 39 8 150v37q6 6 21 16h157q16 0 37 18l72 -4l49 8q16 0 16 -10v-20l-118 -74q-80 -51 -76 -111q33 -606 24 -833l-8 -217q4 -4 19 -10l151 2l99 -11v-22l-353 -141 l-145 -37q-20 4 -21 34z" />
<glyph unicode="\" horiz-adv-x="643" d="M145 1217q-4 37 2 75h23l270 -637q37 -84 135 -303q109 -246 109 -293v-24l-25 -10l-460 677l-25 263q0 47 -16 53q-2 109 -13 199z" />
<glyph unicode="]" horiz-adv-x="546" d="M68 1284q4 10 67 25l148 32l24 -4l51 13q2 -2 2 -7.5t2 -5.5l39 -4l25 -57l63 -494l33 -360l4 -129l37 -230v-49l-12 -8h-16l-181 -8l-190 -39h-41q-8 8 -8 12q0 14 82 66q14 8 104 61l-25 752q-8 86 -26 328q-2 37 -12.5 46t-49.5 15l-102 18q-6 6 -18 27z" />
<glyph unicode="a" horiz-adv-x="962" d="M170 100v117l8 31v76q0 84 199 200q96 57 164 58q6 0 7 -2t5 -2q10 0 59.5 15t51.5 19v158q0 53 -48 78q-49 18 -96 35l-74 -58l64 -110q0 -20 -6 -29q-18 -27 -69.5 -93.5t-106.5 -66.5q-45 0 -92 33q-10 8 -26.5 55.5t-35.5 53.5q8 -2 21 4l-9 35q0 72 115 164t191 96 l69 4l88 14l31 -8q4 0 9 2t9 2q16 0 99.5 -87t83.5 -103v-211l-9 -27v-354l15 -17l59 140l15 -7l59 -55q-16 -49 -35 -98l-4 -10q-37 -94 -66 -95l-198 4q-37 6 -37 37v82q-29 -4 -139 -88l-113 -86q-20 0 -139 47zM430 254l43 -12l64 8q8 2 75 41q76 43 76 57l-16 131 l-129 -22q-53 -4 -82 -80q-14 -61 -31 -123z" />
<glyph unicode="b" horiz-adv-x="987" d="M29 1374q14 8 106 37t105 29l151 14l25 -51l4 -471l242 104q111 -57 235 -129q23 -41 72 -127q29 -49 28 -53v-104l-8 -43l-8 -230l12 -82q-18 -63 -65 -168q-14 -18 -105 -65l-166 -86l-237 170v-6q0 -53 -66 -58l-243 -14h-1q-22 0 -44 76l8 14h37q90 0 90 53v379 q0 31 8 45q1 18 1 39q0 65 -5 166q0 16 -2 68l-17 125q0 41 -2 79l-2 39q-2 25 19 54v30l-8 95l-160 55zM453 307q0 -33 37.5 -63.5t76.5 -65.5l37 -35q25 0 77 26t52 46v657l-84 41l-188 -92v-119q0 -121 -8 -184q-3 -20 -3 -73t3 -138z" />
<glyph unicode="c" horiz-adv-x="841" d="M57 647q4 47 136 191q18 25 67 59l305 27h5q44 0 145 -70q78 -53 104 -82q5 -79 5 -120q0 -20 -1 -31q0 -45 -45 -79t-92 -34q-14 0 -77.5 46t-65.5 60l20 103q-4 18 19 33q18 8 36 18q-25 25 -83 25q-20 0 -111 -43q-78 -37 -102 -54q-1 -17 -1 -40q0 -114 25 -373 q8 -76 168 -150q23 0 90.5 27.5t71.5 42.5l33 110q20 70 41 88l28 -4q10 0 31.5 -22.5t21.5 -32.5q0 -12 -53 -164q-2 -45 -43 -145q-72 -23 -192 -58l-109 -8q-86 53 -250 178q-20 18 -46.5 46t-28.5 47z" />
<glyph unicode="d" horiz-adv-x="923" d="M29 528q0 90 8 154q2 18 52 94t56 86q39 49 76 56l258 38l117 -94v244q0 12 -2 35.5t-2 36.5v36q0 23 -14 23h-168l-64 41v18l23 15l20 6l494 55l98 -16l8 -31q-68 -27 -100 -47q-66 -37 -76 -74l4 -319l-12 -246l-4 -451q0 -25 45 -57q23 -16 72 -49v-45h-19v-39h-289 q-14 2 -18 29q-8 49 -12 59l-56 -20l-248 -80q-45 29 -137 90q-98 68 -98 112q0 57 -6 170t-6 170zM231 293q0 -29 109 -146l74 21l121 47l53 506q-86 72 -125 94l-43 4l-101 -24l-28 -105z" />
<glyph unicode="e" horiz-adv-x="808" d="M43 702q16 29 96 117q98 109 121 142l189 26h51l215 -106v-25l106 -362h-131l-336 -31h-57l-4 -76q0 -14 12 -37q45 -51 113 -149q72 16 205 65q8 4 36.5 86t47.5 82q10 0 36.5 -16.5t30.5 -26.5l-18 -65l-25 -174q1 -4 1 -8q0 -22 -36 -42q-39 -14 -75 -30l-125 -21 l-99 -39q-94 76 -192 160q-113 96 -113 174q0 12 4 25zM274 590q8 0 13 -4l37 14l272 21q-43 137 -47 149q-41 98 -96 102l-54 5q-16 2 -125 -160v-127z" />
<glyph unicode="f" horiz-adv-x="782" d="M31 -4q14 16 45 47q164 86 164 125v561l-33 8h-117q-25 18 -35 80l4 21l179 18v170l22 117l219 207h228q47 -34 131 -138l-31 -165v-11q2 -6 2 -12q0 -4 -6 -13.5t-6 -13.5l-156 -16q-29 0 -88 137q0 14 25.5 50t29.5 49l-30 10h-27l-19 4q-55 -33 -59 -86l-14 -248 q0 -14 7 -27.5t21 -11.5h156q8 -6 22.5 -34.5t14.5 -39.5q0 -4 -4 -14q-2 -8 0 -12l-135 -21q-31 0 -39 -5t-13 -34l-16 -415q-3 -71 -3 -117.5t3 -67.5l55 -18q12 -2 19 0l69 -33q0 -16 9 -29q-160 -2 -381 -22q-53 -6 -203 -23z" />
<glyph unicode="g" horiz-adv-x="962" d="M35 -193l6 46q0 4 3 14t3 16q10 16 72 54q72 43 106 43q4 0 8 -5l62 29q2 0 8 -4t12 -4l19 -37l-43 -51q29 -33 90 -94l74 36q4 -4 8 -4l102 43q12 8 41 23q-6 59 -37 123l-149 -15l-299 5q-23 0 -29 63l-6 66l18 106q10 63 58 64l31 14q-84 125 -84 160q0 23 92 299 q123 74 245 108l230 -33l16 91q16 51 58 61q14 0 43.5 -4t44.5 -4h34q35 0 48 -45q6 -39 12 -76l2 -43q-16 -49 -35 -49q-6 0 -14 4l-76 -21h-12q-4 0 -62 68l-6 -18l6 -25l8 6q37 -14 70 -90q16 -39 49 -115q37 -81 76 -157q0 6 -84 -172q-10 -23 -31 -23l-407 -39 q0 -14 17.5 -30.5t31.5 -16.5h295l96 -41q-2 -10 -2 -22q0 -35 16 -93q17 -65 20 -65q1 0 1 2v-35l4 -18l-76 -43q-51 -16 -209 -135l-153 -115q-37 0 -217 90q-143 72 -205 108zM350 500v1q4 0 68 -141h203q23 0 22 46q6 244 8 292l2 33q2 23 -37 41q-31 14 -43 14l-122 5 q-23 0 -42.5 -31t-19.5 -55v-23l-39 -135v-47z" />
<glyph unicode="h" horiz-adv-x="1058" d="M-57 1319l96 29l293 30q12 -12 12 -32v-277l4 -176q2 10 10 27q25 12 123.5 43.5t116.5 31.5q4 0 46 -30.5t52 -34.5q45 -18 109 -62q6 -6 18 -63l25 -608q2 -12 8 -35q41 -23 133 -84v-33l-246 -41l-24 8h-39q-20 0 -51 4q-41 4 -54 4l-36 3l-4 24q41 29 118 86l-26 221 l-17 185l-4 170q-115 78 -127 77q-20 0 -86 -57q-8 -47 -22 -86q10 0 10 -8v-311l8 -72q4 -12 6 -25q4 -14 -6 -22l103 -127q-4 -6 -13 -31l-475 -10l125 113v243l35 535v260q0 10 -94 43q-39 14 -77 29.5t-50 58.5z" />
<glyph unicode="i" horiz-adv-x="491" d="M33 31q14 23 67 49l78 39q0 41 -10 209q-4 68 -4 241v201l-35 18h-84q0 10 -12 29l16 27h33l57 12l211 39h53l-26 -682q2 -6 0 -16q-2 -6 -4 -17q0 -51 57 -67q84 -25 96 -33q-4 -2 -12 -8q8 -16 8 -21l-49 -18q-33 -6 -98 -10l-273 8q-6 0 -41 -4q-6 -2 -10 -2 q-10 0 -18 6zM170 1102q0 10 43 75.5t59 84.5q10 0 31 6l109 10q6 0 15 -8t11 -8l41 -146q-43 -51 -63 -72q-39 -41 -74 -61l-100 66q-72 45 -72 53z" />
<glyph unicode="j" horiz-adv-x="743" d="M35 -221q0 51 49 162q10 25 104 39l76 12q12 0 44 -25.5t42 -29.5q-14 -37 -31 -84v-68h52l106 154l4 581l13 354l-136 44l-4 22l138 21h47l57 -13h102v-362q0 -20 17 -209q2 -14 8 -49t6 -54v-368l-301 -293l-41 12q-20 4 -192 45q-16 4 -82 45q-78 49 -78 64zM473 1180 l70 108q35 55 63 60l37 -13q72 -4 127 -39v-108l-8 -58q-57 -31 -168 -94z" />
<glyph unicode="k" horiz-adv-x="1040" d="M119 8l141 82q-10 57 -10 344v320l6 51v72q0 -25 2 40.5t2 73.5q0 27 3 83t3 85q0 49 -8 60l-119 112l4 19h6q21 0 109 -7q82 -6 121 -6h123v-555l-8 -51l-5 -244q70 53 263 263l-160 75l168 33q40 3 83 3q65 0 136 -7q82 -8 82 -33q0 -6 -4 -12q-41 -12 -80 -27 q-49 -18 -72 -43q-35 -37 -108 -133q-86 -111 -86 -129q0 -16 90 -119q98 -113 106 -131q33 -74 94 -110q20 -12 113 -58v-32h-199q-27 -6 -272 -33l-31 2l-4 29l183 86q-90 100 -259 311q-8 6 -26 6l-8 -12l24 -305l31 -54l-4 -30l-105 -11l-77 -20q-16 6 -33 6 q-37 0 -94 -8q-72 -10 -95 -12l-26 8v18z" />
<glyph unicode="l" horiz-adv-x="557" d="M68 61q6 37 86 66q25 8 86 43q0 6 -2 55l-9 213q0 231 9 357q4 69 4 231v119l-9 80q6 12 7 20q0 18 -25 21l-139 61q0 12 16 23h90l101 22q10 -4 61 2q61 6 70 6q43 0 41 -41l4 -79l-9 -39l17 -621l-12 -182l4 -217q-2 -25 57 -60q27 -14 80 -43q-4 -10 -4 -18t4 -14 l-446 -13h-23q-54 0 -59 8z" />
<glyph unicode="m" horiz-adv-x="1525" d="M20 858q8 6 19 19l240 26l155 12l47 -20v-109q135 158 281 201q59 -20 176 -53q20 -25 22.5 -65t8.5 -52l172 135q6 0 16 2t17 2l55 9q41 -14 110.5 -56.5t106.5 -56.5q8 -10 18 -92l19 -549q-2 -8 -2 -16q0 -31 67 -60q76 -33 86 -47q0 -10 -10 -16h-15q-58 0 -218 -11 l-205 -14q-10 0 -19 19l111 141l-27 579l-98 43q-59 -57 -139 -118q-35 -27 -37 -58v-22q0 -41 4 -131l8 -162q2 -49 8 -162l103 -131v-18q-68 6 -336 16l-109 -16l-14 18l92 115l-2 98q-2 115 -10 447q-2 39 -4 40q-4 23 -23 54h-26l-86 -21q-27 -4 -57.5 -57t-43.5 -53 v-146q0 -61 -8 -181t-8 -181q0 -6 66.5 -51.5t74.5 -59.5q-4 -6 -4 -14q-25 0 -71 -6t-70 -6q8 0 -8.5 3t-23.5 3t-208 14l-143 49q12 39 123 82h4q38 0 41 41l-19 576l-80 24l-120 35q0 2 -7 8z" />
<glyph unicode="n" horiz-adv-x="966" d="M8 852q6 6 56.5 25.5t60.5 19.5l113 4q16 0 47.5 8.5t46.5 8.5h51l16 -50v-30q98 119 109 118h84l84 21l31 -12l20 12q61 -59 162 -148q0 2 -2 -260l-2 -262l-6 -57v-100l43 -29l114 -60q0 -18 -14 -16h-107q-31 10 -43 8q-47 -8 -84 -8h-77l-29 -12l-82 -13q-6 2 -18 15 l90 90q0 416 -4 481q-4 54 -4 87q0 22 2 34q6 49 6 61v23l-41 18h-64l-151 -159v-43q0 -4 -4 -7.5t-4 -9.5v-420q0 -51 14 -57q49 -23 88 -63q-10 -10 -35 -15l-29 4l-22 -14q-121 16 -193 16q-29 0 -87 -5t-87 -5q-14 14 -14 17q0 8 66.5 69.5t68.5 75.5l-8 49v68l-8 446 q-12 27 -66 45z" />
<glyph unicode="o" horiz-adv-x="870" d="M33 242v430q31 43 114 180q33 53 62 63l119 39q4 -4 8 -4l92 35l21 -4l65 16h39l72 -4q37 -16 126 -123.5t89 -142.5v-510q0 -12 -170 -151h-80l-88 -17q-111 -20 -166 -20l-64 6q-12 0 -34 8q-205 176 -205 199zM248 639l8 -51l6 -248v1l4 -103q2 -20 53.5 -62.5 t71.5 -42.5q18 0 68 23q25 14 47 26q51 18 96 31q12 16 12 35v170l9 33v28q0 41 8 120t8 120q1 29 -65 93q-59 58 -84 59q-3 0 -5 -1l-61 4h-8q-10 0 -20 -4q-12 -6 -15 -6l-16 6q-27 -8 -74 -58q-40 -43 -40 -66q0 -4 1 -7z" />
<glyph unicode="p" horiz-adv-x="1009" d="M27 889l12 20l280 27h138v-102q12 12 53 102q26 55 84 55h4q23 0 63.5 5t61.5 5q31 0 49 -10l246 -262v-403q0 -25 -51 -88q-18 -23 -66 -80q-8 -10 -94 -138q-79 -17 -79 -19q0 -1 3 -1q-4 0 -12 4l-115 -33q-35 16 -53 37q-45 51 -80 82l-10 -51l12 -76l-4 -160 q10 -37 89 -62.5t89 -51.5l-12 -13h-49l-76 -16l-74 -6l-67 8l-267 -29l-55 5v20q102 63 193 109l4 1017q0 39 -23 52q-12 6 -55 14l-135 24q0 -4 -4 15zM481 279q10 -39 21 -54q86 -98 127 -98q16 0 127 72q27 115 78 213l-97 426l-114 12l-115 -121v-242l-10 -73l-9 -37 v-74z" />
<glyph unicode="q" horiz-adv-x="909" d="M39 332q2 16 22 121q25 131 33 188q14 106 41 164q10 20 92 89t99 69l256 -11q25 -8 57 -55q43 -61 57 -76l95 107q2 0 11 -8.5t15 -8.5l12 -172l-16 -340l4 -311l-6 -27q6 -33 6 -57v-12q-6 -84 -8 -191q23 -16 98 -49q52 -23 68 -43q-12 -14 -29 -14l-174 -21l-37 4 q-18 0 -55 -9t-55 -9h-203l178 147l-12 226q-2 20 -13 33l-114 -31q-45 -4 -135 -15q-14 -2 -7 -2q-27 0 -153.5 142.5t-126.5 171.5zM264 297q6 -39 168 -156l172 113v424l-16 65q1 3 1 8q0 36 -85 138l-68 -4q-109 -6 -108 -86v-31l-21 -86l-28 -182z" />
<glyph unicode="r" horiz-adv-x="831" d="M35 889q0 29 37 29q4 0 8 -3l102 33l228 27l26 -115q18 10 61.5 59.5t63.5 55.5l170 8q12 0 43 -41q18 -27 70 -131l4 -20q-14 -18 -39 -113q-15 -60 -69 -60h-5l-90 -26h-39q-20 0 -53 72q-25 51 -33 81l17 46l-11 6q-37 -8 -45 -62l-20 -545q0 -27 149 -69 q0 -18 13 -31l-148 -24l-110 -5l-256 -34l-19 8v22q139 70 139 86v56q0 10 7 16l-7 23v28l-12 189l19 92l-17 244q-2 35 -37 34h-35q-20 0 -66 23.5t-46 40.5z" />
<glyph unicode="s" horiz-adv-x="778" d="M20 737q27 49 154 147.5t174 98.5q23 -14 72 -39l94 -37q51 -23 82 -55q10 6 19.5 45t15.5 45h57q29 0 34 -53l-5 -64l-35 -200l-25 -72h-16q-27 0 -37 31l-8 45q-6 37 -35 116q-61 37 -86 52q-59 32 -86 32h-2q-29 0 -92.5 -53t-63.5 -82q0 -70 88 -104q68 -18 136 -35 q125 -43 196 -68q33 -10 117 -153l-39 -189q-8 -45 -227 -178l-281 115q-2 -2 -45 -66q-33 -49 -45 -49q-4 0 -8 2t-6 2l-47 293l-13 137q6 2 13 9q57 -31 152 -143.5t161 -143.5l45 -23q6 0 52 17.5t50 21.5q4 41 15 123q2 16 2 19q0 16 -90 30q-176 63 -238 97 q-29 14 -78 26z" />
<glyph unicode="t" horiz-adv-x="634" d="M20 788l259 267l12 133q2 33 88 88h18v-363h113l55 13h37v-123h-104l-90 -27v-256q-10 -49 -15 -284q0 -18 39 -37l62 -29q14 23 14 43v27l12 159l82 13q14 -2 27 -60q8 -39 8 -67v-25l8 -147q-4 -33 -158 -105l-45 -26l-135 55l-78 10l-16 -2q-2 4 -10 4q6 4 16 2 q2 7 2 24q0 47 -12 171l-19 188v189l13 139q-33 10 -57 10h-7q-61 -12 -69 -12z" />
<glyph unicode="u" horiz-adv-x="991" d="M10 864v29l248 -6q12 -18 14 -19l142 6l12 -14l-33 -57v-115q2 -12 17 -35l-21 -178l-4 -174l16 -65q80 25 152 90q25 23 125 137q-6 174 -23 350q-45 20 -59 21h-70l-57 12q-4 14 4 28q70 0 154 7l84 6l202 -10q12 0 28.5 -15.5t16.5 -27.5l-88 -39v-412l-6 -39l2 -170 l54 14h69q0 -12 12 -12l9 -106q-248 -23 -328 -23q-10 0 -17.5 13.5t-5.5 23.5v104l-81 -94q-72 -84 -78 -84l-125 13l-39 12h-41l-150 182v49l7 23l12 428l12 61z" />
<glyph unicode="v" horiz-adv-x="835" d="M10 842v18l37 21l180 24l135 -8l5 6q20 -4 61 -20q4 -14 4 -21l-86 -28q-4 -4 -4 -11q0 -23 82 -211t106 -229l140 385q-43 29 -121 61q0 2 -2 6.5t-2 8.5q43 39 65 55l234 10l43 11l8 -31q-57 -43 -96 -119q-29 -70 -60 -141q-59 -125 -225 -486q-20 -63 -25 -71 q-20 -49 -43 -54l-227 543v43q2 8 -33 76q-41 80 -71 117q-12 12 -105 45z" />
<glyph unicode="w" horiz-adv-x="1267" d="M23 901l2 21l59 10l115 4q10 0 12 8l63 -24h117q33 0 31 -43q-23 -12 -64 -37q45 -74 134 -232q27 23 71 99q53 86 72 108q-8 10 -28.5 14.5t-24.5 8.5l-93 20q-4 10 -4 19q0 10 7 16q33 0 98 6t98 6l64 -6q66 -6 86 -39v-26l-37 -19l133 -287l137 306l-47 12h-82l-61 28 v19l14 6l434 2q13 1 29 -22q-8 -8 -27 -25l-57 -20q-98 -14 -113 -54q-35 -98 -133 -381q-47 -133 -156 -395h-18l-162 596l-215 -561q-16 -2 -22 10q-39 72 -58 129q-49 147 -80 238q-80 233 -174 418q-6 10 -55 34q-33 16 -65 33z" />
<glyph unicode="x" horiz-adv-x="1003" d="M57 49q31 27 88 55q76 37 95 50q25 31 41 55q137 197 137 217q0 14 -150 256q-4 8 -43 96q-12 14 -32 29q-12 8 -105 49q4 12 44 27.5t56 15.5q23 0 67 -2t67 -2q8 0 9 -4t5 -4h31q45 0 145 -43v-35l-80 -31l160 -151q37 45 125 147l-119 78q0 10 20 22l50 -12h98l258 -4 v-41q-186 -47 -375 -350q68 -125 142 -246q33 -53 88 -74q74 -27 120 -51q0 -2 5.5 -13t5.5 -17l-19 -7l-375 -6l-43 4l-24 4l-6 17q14 25 45 43l57 33l-139 188l-121 -209q0 -8 23.5 -20.5t33.5 -12.5h29l12 -39q-18 -4 -127 -20q-123 -18 -163 -18h-127z" />
<glyph unicode="y" horiz-adv-x="985" d="M16 -88q18 16 107.5 54t112.5 38q20 0 71 -37t51 -55l-20 -43q-23 -47 -23 -62q25 -20 35 -20q14 0 56 37q35 35 47 53q14 31 61 232l4 77q-152 373 -287 656q-8 14 -41 32q-45 25 -53 31t-31 41q18 23 37 23l209 6l78 -19q102 -25 123 -49v-18q-68 -25 -94 -66l190 -354 l125 432q-23 4 -37 -2l-71 25q-16 0 -25 18q2 20 47 19l234 -9q4 0 12 -6t12 -6l39 4l14 -2l52 -2q-2 -4 0 -12q4 -11 4 -13q0 -8 -13 -18q-45 -6 -63 -14q-41 -18 -61 -56q-12 -43 -54 -157q-55 -139 -205 -539q-20 -53 -71 -293q-29 -33 -101 -145q-12 -18 -45 -72 q-6 -4 -28 -4l-109 18q-113 18 -270 76l-19 148v53z" />
<glyph unicode="z" horiz-adv-x="894" d="M27 90v21q0 27 147 235q123 176 182 244q90 106 183 241q-8 10 -21 11l-203 -33q-4 2 -22 -8q-4 -2 -39 -106.5t-35 -119.5v-92l-20 -37l-23 5l-12 110l12 297q2 14 4 43q4 4 21 10l16 -8l332 8q14 0 16 -2l94 -2q6 0 11.5 -4t9.5 -4l113 -10q31 0 30 -35q0 -4 -215 -276 q-229 -291 -278 -402h360l35 103q27 137 84 245q20 -8 39 -123l4 -108l39 -246l-569 6l-117 -6l-37 16z" />
<glyph unicode="&#xad;" d="M170 426v25q6 4 37 12l883 84q16 -6 16 -23q8 -141 4 -155q-86 -6 -252 -25q-129 -14 -160 -14l-186 -17l-285 -43q-8 8 -32.5 76t-24.5 80z" />
<glyph unicode="&#xc5;" horiz-adv-x="1394" d="M156 133q16 33 114 68q111 39 133 61q23 55 111 277q10 25 129 319q23 57 80 203l25 59q61 150 79 150t68 -105q41 -86 51 -129q33 -131 101 -293q41 -94 120 -284q18 -47 62 -150q53 -115 94 -119l137 -14q13 -2 33 -31q0 -14 -14 -14l-78 2l-43 -8l-422 -27l-66 2 q-45 6 -45 31l238 82v14q0 18 -55 121q-41 76 -66 117l-340 -12q-33 -6 -33 -43l-32 -168q16 -4 102 -33q59 -20 84 -43v-19l-133 -14h-434zM641 584l227 14q-12 55 -100 324q-98 -233 -127 -338zM692 1358l4 84q2 45 9 78q8 10 118 59q2 0 11.5 11.5t17.5 11.5 q23 0 79 -61.5t56 -84.5q0 6 -63 -170q-8 -20 -27 -20q-35 0 -117 32q-90 35 -88 60z" />
<glyph unicode="&#xc6;" horiz-adv-x="1650" d="M63 4q18 6 125 98q31 18 76 60q33 57 135 280q57 125 193 342q154 246 207 338q-2 8 -35 17l-86 20q-12 0 -16 -4l-33 16q2 6 12 27l145 21l236 -9l252 9q31 0 92 12t94 12h99q6 0 12 6q8 -4 20 -16q-2 -8 8 -27v-389l9 -31q-4 -8 -17 -26l-202 366q-29 -2 -80 0 l-154 -47q-6 10 -49 6q-59 -6 -47 -6l-8 -43q18 -186 24 -356l119 12l115 301q4 4 12 4t22 -16v-266l33 -373l-10 -25h-20l-113 252l-127 -2l-12 -475q74 -10 260 -16q25 0 55 55l168 301q18 -2 29.5 -25.5t9.5 -44.5l20 -282l23 -45v-21h-76q8 0 -145 -10 q-160 -10 -389 -18l-306 -11h-170q2 27 74 56l144 57l-17 143q-2 23 -22 99l-244 -25q-47 -4 -77 -70.5t-52 -115.5q8 -8 76 -56q45 -31 39 -86l-428 3zM565 444h97l96 25l16 328z" />
<glyph unicode="&#xd8;" horiz-adv-x="1454" d="M391 668l4 364q82 123 258 291q18 16 149.5 56t164.5 40h14q-12 0 113 -61q8 -4 176 -80l67 106l93 -24q18 -2 24 -23l-78 -145l168 -299q-14 -90 -18 -203l-8 -225q-8 -35 -78 -123q-39 -39 -127 -135q-20 -33 -62 -82q-29 -25 -67 -25h-64l-184 -55q-45 16 -125 49 q-29 20 -96 49l-101 -75l-57 57l39 100q-25 29 -119 125q-68 70 -69 96zM707 553l51 -100q131 246 403 729l-98 71h-55l-144 -14q-43 8 -129 -113l-4 -55q-6 -72 -24 -518zM803 299q4 -20 12 -51q6 -2 115 -41l94 -17q8 6 100 80q82 63 88 101q50 253 50 446v45l-48 148 l-411 -695v-16z" />
<glyph unicode="&#xe5;" horiz-adv-x="964" d="M47 356l57 56q113 47 115 49q6 0 6 -2t6 -2q20 0 146 39q98 31 141 47q0 35 -4 92q-25 117 -37 117l-170 -2q0 -2 14.5 -16.5t14.5 -31.5l20 -106q-25 -53 -166 -100q-6 6 -69 63q-53 47 -53 57q0 8 32 97q37 98 64 147q8 16 59 37q70 29 119 29l260 32q31 0 62 -28 q47 -43 69 -58q4 -6 6 -34l35 -428l8 -230q-2 -25 31 -24h45q2 -2 2 18v195h47l39 16l27 -33l10 -159l-2 -107q-8 -29 -88 -61l-90 -48q-106 29 -133 41q-70 33 -88 99l-142 -119q-82 8 -184 8q-25 0 -113 17q-10 18 -47 130.5t-37 122.5v23zM285 1055q27 63 80 202 q14 4 41 13l94 8q27 2 63 -14q10 -18 36 -87t26 -85v-43l-156 -80l-90 32q-55 20 -94 54zM301 172h152q25 14 82 143l-23 62h-20l-148 -39q-10 4 -14 4q-29 0 -29 -96v-74zM426 1128l68 -32l28 63h-30q-10 0 -35 8q-23 -14 -31 -39z" />
<glyph unicode="&#xe6;" horiz-adv-x="1292" d="M51 371q0 31 168 229q217 61 295 62q6 0 6 -4.5t2 -4.5l15 221q2 25 -11 31q-18 2 -39 6l-102 35l-80 -51l74 -100q-27 -57 -51 -117q-35 -51 -107 -51q-6 0 -19.5 2t-20.5 2t-62.5 89t-63.5 111l275 252h106q16 0 98 -28.5t89 -36.5q37 8 172 63q111 45 145 47l121 -32 l80 -27h16q39 -76 107 -334l32 -127q-4 -12 -18 -24q-31 -6 -256 -17q-186 -8 -268 -8v-53l12 -96l-4 -121q14 -53 74 -53h34q4 -2 11 -9h82q25 25 59 170q6 25 27 31l57 10l39 -2v-108l-19 -144l-22 -39q-141 -23 -277 -57l-110 47l-66 31q-27 12 -71 72q-23 -29 -69 -87.5 t-77 -66.5l-117 16h-81q-45 0 -119 127q-66 115 -66 144zM332 291h35l135 35l30 104v100q-4 4 -12 5q-188 -47 -188 -82v-162zM731 831l12 -149l25 10q4 0 13.5 -2t13.5 -2l88 25q25 6 172 32l12 60q-131 184 -143 184q-20 0 -76 -43q-18 -16 -57 -47q-18 -10 -50 -33 q-12 -14 -10 -35z" />
<glyph unicode="&#xf8;" horiz-adv-x="980" d="M127 631q0 4 10 25.5t13 27.5q8 47 38 109l54 102q12 27 39 86q27 53 77 80q33 16 107 35l119 28l213 -75l90 75l65 -77q-59 -119 -59 -142l72 -504q-6 -61 -29 -98q-47 -78 -84 -147l-80 -21q-51 -4 -94 -12q-10 -6 -33 -10h-149l-95 -37h-20l-39 123l-70 -129 q-18 2 -86 63q2 20 56 125q0 2 -12.5 24.5t-14.5 28.5q-35 133 -68 248zM383 549l41 -105l235 508l-57 41h-98q-41 0 -73 -31.5t-32 -72.5v-47l-16 -76v-217zM479 315l13 -63l79 4h58l47 2q31 113 76 199l-9 57q-8 80 -30 279q-53 -92 -121 -236q-55 -121 -113 -242z" />
<glyph unicode="&#x2000;" horiz-adv-x="801" />
<glyph unicode="&#x2001;" horiz-adv-x="1602" />
<glyph unicode="&#x2002;" horiz-adv-x="801" />
<glyph unicode="&#x2003;" horiz-adv-x="1602" />
<glyph unicode="&#x2004;" horiz-adv-x="534" />
<glyph unicode="&#x2005;" horiz-adv-x="400" />
<glyph unicode="&#x2006;" horiz-adv-x="267" />
<glyph unicode="&#x2007;" horiz-adv-x="267" />
<glyph unicode="&#x2008;" horiz-adv-x="200" />
<glyph unicode="&#x2009;" horiz-adv-x="320" />
<glyph unicode="&#x200a;" horiz-adv-x="89" />
<glyph unicode="&#x2010;" d="M170 426v25q6 4 37 12l883 84q16 -6 16 -23q8 -141 4 -155q-86 -6 -252 -25q-129 -14 -160 -14l-186 -17l-285 -43q-8 8 -32.5 76t-24.5 80z" />
<glyph unicode="&#x2011;" d="M170 426v25q6 4 37 12l883 84q16 -6 16 -23q8 -141 4 -155q-86 -6 -252 -25q-129 -14 -160 -14l-186 -17l-285 -43q-8 8 -32.5 76t-24.5 80z" />
<glyph unicode="&#x2012;" d="M170 426v25q6 4 37 12l883 84q16 -6 16 -23q8 -141 4 -155q-86 -6 -252 -25q-129 -14 -160 -14l-186 -17l-285 -43q-8 8 -32.5 76t-24.5 80z" />
<glyph unicode="&#x2013;" horiz-adv-x="1118" d="M170 426v25q7 4 40 12l961 84q17 -6 17 -23q9 -141 5 -155q-94 -6 -275 -25q-140 -14 -174 -14l-202 -17l-310 -43q-9 8 -35.5 76t-26.5 80z" />
<glyph unicode="&#x2014;" horiz-adv-x="2142" d="M170 426v25q13 4 80 12l1922 84q34 -6 34 -23q18 -141 9 -155q-187 -6 -548 -25q-281 -14 -348 -14l-405 -17l-620 -43q-17 8 -70.5 76t-53.5 80z" />
<glyph unicode="&#x202f;" horiz-adv-x="320" />
<glyph unicode="&#x205f;" horiz-adv-x="400" />
<glyph unicode="&#x25fc;" horiz-adv-x="901" d="M0 0v901h901v-901h-901z" />
</font>
</defs>
</svg>
